<svg xmlns="http://www.w3.org/2000/svg" width="1440" height="768" viewBox="0 0 1440 768">
    <g fill="none" fill-rule="evenodd">
        <path fill="#FFF" d="M0 0h1440v768H0z" style="mix-blend-mode:multiply"/>
        <path fill="#FFF7E2" d="M0 159.789v435.277c366.768 52.807 649.115 27.206 847.04-76.802 197.927-104.008 395.58-110.544 592.96-19.608v-284.42c-173.535 177.18-410.85 202.659-711.943 76.435C426.963 164.448 184.277 120.821 0 159.79z"/>
        <path fill="#F8F8F8" d="M68.79 102.037c0 1.649-1.413 3.062-3.062 3.062H21.202c-1.649 0-3.062-1.413-3.062-3.062V84.839c0-1.649 1.413-3.062 3.062-3.062h44.526c1.649 0 3.062 1.413 3.062 3.062v17.198zM123.681 102.037c0 1.649-1.414 3.062-3.063 3.062H76.093c-1.649 0-3.062-1.413-3.062-3.062V84.839c0-1.649 1.413-3.062 3.062-3.062h44.525c1.65 0 3.063 1.413 3.063 3.062v17.198zM178.572 102.037c0 1.649-1.414 3.062-3.063 3.062h-44.525c-1.649 0-3.063-1.413-3.063-3.062V84.839c0-1.649 1.414-3.062 3.063-3.062h44.525c1.65 0 3.063 1.413 3.063 3.062v17.198zM233.463 102.037c0 1.649-1.414 3.062-3.063 3.062h-44.525c-1.65 0-3.063-1.413-3.063-3.062V84.839c0-1.649 1.414-3.062 3.063-3.062H230.4c1.65 0 3.063 1.413 3.063 3.062v17.198zM95.175 128.893c0 1.65-1.413 3.063-3.062 3.063H47.588c-1.65 0-3.063-1.414-3.063-3.063v-17.197c0-1.65 1.414-3.063 3.063-3.063h44.525c1.649 0 3.062 1.414 3.062 3.063v17.197zM150.066 128.893c0 1.65-1.413 3.063-3.062 3.063h-44.525c-1.65 0-3.063-1.414-3.063-3.063v-17.197c0-1.65 1.413-3.063 3.063-3.063h44.525c1.649 0 3.062 1.414 3.062 3.063v17.197zM150.066 74.945c0 1.649-1.413 3.062-3.062 3.062h-44.525c-1.65 0-3.063-1.413-3.063-3.062V57.747c0-1.649 1.413-3.062 3.063-3.062h44.525c1.649 0 3.062 1.413 3.062 3.062v17.198zM204.957 74.945c0 1.649-1.413 3.062-3.063 3.062H157.37c-1.649 0-3.062-1.413-3.062-3.062V57.747c0-1.649 1.413-3.062 3.062-3.062h44.525c1.65 0 3.063 1.413 3.063 3.062v17.198zM399.313 47.352c0 1.65-1.414 3.063-3.063 3.063h-44.525c-1.649 0-3.062-1.414-3.062-3.063V30.155c0-1.65 1.413-3.063 3.062-3.063h44.525c1.65 0 3.063 1.414 3.063 3.063v17.197zM344.204 47.352c0 1.65-1.414 3.063-3.063 3.063h-44.525c-1.65 0-3.063-1.414-3.063-3.063V30.155c0-1.65 1.414-3.063 3.063-3.063h44.525c1.65 0 3.063 1.414 3.063 3.063v17.197zM314.756 74.209c0 1.649-1.414 3.062-3.063 3.062h-44.525c-1.649 0-3.062-1.413-3.062-3.062V57.01c0-1.649 1.413-3.063 3.062-3.063h44.525c1.65 0 3.063 1.414 3.063 3.063v17.198zM370.807 74.209c0 1.649-1.413 3.062-3.062 3.062H323.22c-1.65 0-3.063-1.413-3.063-3.062V57.01c0-1.649 1.414-3.063 3.063-3.063h44.525c1.649 0 3.062 1.414 3.062 3.063v17.198zM425.698 20.26c0 1.65-1.413 3.063-3.062 3.063H378.11c-1.649 0-3.062-1.414-3.062-3.063V3.063c0-1.65 1.413-3.063 3.062-3.063h44.526c1.649 0 3.062 1.413 3.062 3.063V20.26zM80.334 35.337c0 1.65-1.414 3.063-3.063 3.063h-44.76c-1.65 0-3.063-1.413-3.063-3.063V18.14c0-1.65 1.413-3.063 3.062-3.063h44.526c1.649 0 3.062 1.414 3.062 3.063v17.197h.236zM50.65 62.194c0 1.649-1.413 3.062-3.062 3.062H3.063C1.413 65.256 0 63.843 0 62.194V44.996c0-1.649 1.413-3.062 3.063-3.062h44.525c1.649 0 3.062 1.413 3.062 3.062v17.198z" style="mix-blend-mode:multiply"/>
        <path fill="#FFF0CA" d="M65.728 298.955c0-1.65 1.413-3.063 3.062-3.063h44.525c1.65 0 3.063 1.414 3.063 3.063v17.197c0 1.65-1.414 3.063-3.063 3.063H68.79c-1.649 0-3.062-1.414-3.062-3.063v-17.197zM10.837 298.955c0-1.65 1.413-3.063 3.062-3.063h44.526c1.649 0 3.062 1.414 3.062 3.063v17.197c0 1.65-1.413 3.063-3.062 3.063H13.899c-1.649 0-3.062-1.414-3.062-3.063v-17.197zM40.285 272.098c0-1.649 1.413-3.062 3.062-3.062h44.525c1.65 0 3.063 1.413 3.063 3.062v17.198c0 1.649-1.414 3.062-3.063 3.062h-44.29c-1.648 0-3.062-1.413-3.062-3.062v-17.198h-.235zM39.107 326.047c0-1.65 1.413-3.063 3.062-3.063h44.525c1.65 0 3.063 1.414 3.063 3.063v17.197c0 1.65-1.413 3.063-3.063 3.063h-44.29c-1.648 0-3.062-1.414-3.062-3.063v-17.197h-.235zM54.89 211.553c0-1.649 1.414-3.062 3.063-3.062h44.526c1.649 0 3.062 1.413 3.062 3.062v17.198c0 1.649-1.413 3.062-3.062 3.062H57.953c-1.649 0-3.062-1.413-3.062-3.062v-17.198zM0 211.553c0-1.649 1.413-3.062 3.063-3.062h44.525c1.649 0 3.062 1.413 3.062 3.062v17.198c0 1.649-1.413 3.062-3.062 3.062H3.063c-1.65 0-3.063-1.413-3.063-3.062v-17.198zM29.448 184.697c0-1.65 1.413-3.063 3.062-3.063h44.526c1.649 0 3.062 1.414 3.062 3.063v17.197c0 1.65-1.413 3.063-3.062 3.063H32.51c-1.649 0-3.062-1.413-3.062-3.063v-17.197zM74.915 205.664c.236 0 .236-.236 0 0 0-.236 0 0 0 0z"/>
        <path fill="#F8F8F8" d="M218.15 14.842c0-1.65-1.414-3.063-3.063-3.063h-44.76c-1.65 0-3.063 1.414-3.063 3.063v17.197c0 1.65 1.413 3.063 3.062 3.063h44.526c1.649 0 3.062-1.414 3.062-3.063V14.842h.236z" style="mix-blend-mode:multiply"/>
        <path fill="#FFF0CA" d="M273.65 322.063c0-1.65-1.413-3.063-3.062-3.063h-44.525c-1.65 0-3.063 1.413-3.063 3.063v17.197c0 1.65 1.413 3.063 3.063 3.063h44.525c1.649 0 3.062-1.414 3.062-3.063v-17.197z"/>
        <path fill="#F8F8F8" d="M455.05 126.753c0 1.65-1.414 3.063-3.063 3.063H407.46c-1.649 0-3.062-1.414-3.062-3.063v-17.197c0-1.65 1.413-3.063 3.062-3.063h44.526c1.649 0 3.062 1.414 3.062 3.063v17.197zM509.94 126.753c0 1.65-1.414 3.063-3.063 3.063h-44.525c-1.649 0-3.062-1.414-3.062-3.063v-17.197c0-1.65 1.413-3.063 3.062-3.063h44.525c1.65 0 3.063 1.414 3.063 3.063v17.197zM480.256 153.61c0 1.649-1.413 3.062-3.062 3.062h-44.525c-1.65 0-3.063-1.413-3.063-3.062v-17.198c0-1.649 1.414-3.062 3.063-3.062h44.525c1.649 0 3.062 1.413 3.062 3.062v17.198z" style="mix-blend-mode:multiply"/>
        <path fill="#FFF0CA" d="M280.108 396.721c0 1.65-1.414 3.063-3.063 3.063H232.52c-1.649 0-3.062-1.413-3.062-3.063v-17.197c0-1.65 1.413-3.063 3.062-3.063h44.525c1.65 0 3.063 1.414 3.063 3.063v17.197zM334.999 396.721c0 1.65-1.414 3.063-3.063 3.063h-44.525c-1.649 0-3.063-1.413-3.063-3.063v-17.197c0-1.65 1.414-3.063 3.063-3.063h44.525c1.65 0 3.063 1.414 3.063 3.063v17.197zM305.55 423.578c0 1.649-1.413 3.062-3.062 3.062h-44.525c-1.649 0-3.062-1.413-3.062-3.062V406.38c0-1.649 1.413-3.062 3.062-3.062h44.525c1.65 0 3.063 1.413 3.063 3.062v17.198z"/>
        <path fill="#F8F8F8" d="M1357.908 638.763c0-1.649 1.413-3.062 3.063-3.062h44.525c1.649 0 3.062 1.413 3.062 3.062v17.198c0 1.649-1.413 3.062-3.062 3.062h-44.525c-1.65 0-3.063-1.413-3.063-3.062v-17.198zM1303.017 638.763c0-1.649 1.414-3.062 3.063-3.062h44.525c1.649 0 3.062 1.413 3.062 3.062v17.198c0 1.649-1.413 3.062-3.062 3.062h-44.525c-1.65 0-3.063-1.413-3.063-3.062v-17.198zM1247.89 638.763c0-1.649 1.414-3.062 3.063-3.062h44.526c1.649 0 3.062 1.413 3.062 3.062v17.198c0 1.649-1.413 3.062-3.062 3.062h-44.526c-1.649 0-3.062-1.413-3.062-3.062v-17.198zM1193 638.763c0-1.649 1.414-3.062 3.063-3.062h44.525c1.649 0 3.062 1.413 3.062 3.062v17.198c0 1.649-1.413 3.062-3.062 3.062h-44.29c-1.649 0-3.062-1.413-3.062-3.062v-17.198H1193zM1331.287 611.907c0-1.65 1.414-3.063 3.063-3.063h44.525c1.649 0 3.062 1.414 3.062 3.063v17.197c0 1.65-1.413 3.063-3.062 3.063h-44.525c-1.65 0-3.063-1.414-3.063-3.063v-17.197zM1276.396 611.907c0-1.65 1.414-3.063 3.063-3.063h44.525c1.65 0 3.063 1.414 3.063 3.063v17.197c0 1.65-1.414 3.063-3.063 3.063h-44.525c-1.65 0-3.063-1.414-3.063-3.063v-17.197zM1276.396 665.855c0-1.649 1.414-3.062 3.063-3.062h44.525c1.65 0 3.063 1.413 3.063 3.062v17.198c0 1.649-1.414 3.062-3.063 3.062h-44.525c-1.65 0-3.063-1.413-3.063-3.062v-17.198zM1221.506 665.855c0-1.649 1.413-3.062 3.062-3.062h44.525c1.65 0 3.063 1.413 3.063 3.062v17.198c0 1.649-1.414 3.062-3.063 3.062h-44.525c-1.649 0-3.062-1.413-3.062-3.062v-17.198z" style="mix-blend-mode:multiply"/>
        <path fill="#FFF0CA" d="M384.707 310.97c0-1.65 1.413-3.063 3.062-3.063h44.525c1.65 0 3.063 1.413 3.063 3.062v17.198c0 1.649-1.413 3.062-3.063 3.062H387.77c-1.649 0-3.062-1.413-3.062-3.062v-17.198zM414.39 284.113c0-1.65 1.414-3.063 3.063-3.063h44.525c1.649 0 3.062 1.414 3.062 3.063v17.197c0 1.65-1.413 3.063-3.062 3.063h-44.525c-1.65 0-3.063-1.413-3.063-3.063v-17.197z"/>
        <path fill="#F8F8F8" d="M594.611 126.037c0 1.649-1.413 3.062-3.063 3.062h-44.525c-1.649 0-3.062-1.413-3.062-3.062v-17.198c0-1.649 1.413-3.062 3.062-3.062h44.525c1.65 0 3.063 1.413 3.063 3.062v17.198zM649.502 126.037c0 1.649-1.414 3.062-3.063 3.062h-44.525c-1.649 0-3.062-1.413-3.062-3.062v-17.198c0-1.649 1.413-3.062 3.062-3.062h44.525c1.65 0 3.063 1.413 3.063 3.062v17.198zM704.628 126.037c0 1.649-1.413 3.062-3.062 3.062H657.04c-1.649 0-3.062-1.413-3.062-3.062v-17.198c0-1.649 1.413-3.062 3.062-3.062h44.526c1.649 0 3.062 1.413 3.062 3.062v17.198zM759.519 126.037c0 1.649-1.413 3.062-3.063 3.062h-44.525c-1.649 0-3.062-1.413-3.062-3.062v-17.198c0-1.649 1.413-3.062 3.062-3.062h44.525c1.65 0 3.063 1.413 3.063 3.062v17.198zM621.232 152.893c0 1.65-1.414 3.063-3.063 3.063h-44.525c-1.649 0-3.062-1.414-3.062-3.063v-17.197c0-1.65 1.413-3.063 3.062-3.063h44.525c1.65 0 3.063 1.414 3.063 3.063v17.197zM676.123 152.893c0 1.65-1.414 3.063-3.063 3.063h-44.525c-1.65 0-3.063-1.414-3.063-3.063v-17.197c0-1.65 1.414-3.063 3.063-3.063h44.525c1.65 0 3.063 1.414 3.063 3.063v17.197zM676.123 98.945c0 1.649-1.414 3.062-3.063 3.062h-44.525c-1.65 0-3.063-1.413-3.063-3.062V81.747c0-1.649 1.414-3.062 3.063-3.062h44.525c1.65 0 3.063 1.413 3.063 3.062v17.198zM731.013 98.945c0 1.649-1.413 3.062-3.062 3.062h-44.525c-1.65 0-3.063-1.413-3.063-3.062V81.747c0-1.649 1.414-3.062 3.063-3.062h44.525c1.649 0 3.062 1.413 3.062 3.062v17.198zM1260.156 207.313c0 1.649-1.414 3.062-3.063 3.062h-44.525c-1.649 0-3.062-1.413-3.062-3.062v-17.198c0-1.649 1.413-3.062 3.062-3.062h44.525c1.65 0 3.063 1.413 3.063 3.062v17.198zM1315.047 207.313c0 1.649-1.414 3.062-3.063 3.062h-44.525c-1.65 0-3.063-1.413-3.063-3.062v-17.198c0-1.649 1.414-3.062 3.063-3.062h44.525c1.65 0 3.063 1.413 3.063 3.062v17.198zM1285.363 234.17c0 1.648-1.413 3.062-3.062 3.062h-44.526c-1.649 0-3.062-1.414-3.062-3.063v-17.197c0-1.65 1.413-3.063 3.062-3.063h44.526c1.649 0 3.062 1.414 3.062 3.063v17.197zM1231.65 234.17c0 1.648-1.413 3.062-3.062 3.062h-44.525c-1.65 0-3.063-1.414-3.063-3.063v-17.197c0-1.65 1.414-3.063 3.063-3.063h44.525c1.649 0 3.062 1.414 3.062 3.063v17.197zM1286.541 180.22c0 1.65-1.413 3.063-3.062 3.063h-44.526c-1.649 0-3.062-1.413-3.062-3.062v-17.198c0-1.649 1.413-3.062 3.062-3.062h44.526c1.649 0 3.062 1.413 3.062 3.062v17.198z" style="mix-blend-mode:multiply"/>
        <path fill="#FFF0CA" d="M798.65 494.017c0 1.65-1.413 3.063-3.062 3.063h-44.525c-1.65 0-3.063-1.414-3.063-3.063V476.82c0-1.65 1.413-3.063 3.063-3.063h44.525c1.649 0 3.062 1.414 3.062 3.063v17.197zM853.541 494.017c0 1.65-1.413 3.063-3.062 3.063h-44.526c-1.649 0-3.062-1.414-3.062-3.063V476.82c0-1.65 1.413-3.063 3.062-3.063h44.526c1.649 0 3.062 1.414 3.062 3.063v17.197zM824.093 520.874c0 1.649-1.413 3.062-3.062 3.062h-44.525c-1.65 0-3.063-1.413-3.063-3.062v-17.198c0-1.649 1.413-3.063 3.063-3.063h44.525c1.649 0 3.062 1.414 3.062 3.063v17.198zM583.539 396.721c0 1.65-1.414 3.063-3.063 3.063h-44.525c-1.65 0-3.063-1.413-3.063-3.063v-17.197c0-1.65 1.414-3.063 3.063-3.063h44.525c1.65 0 3.063 1.414 3.063 3.063v17.197zM638.43 396.721c0 1.65-1.414 3.063-3.063 3.063h-44.525c-1.65 0-3.063-1.413-3.063-3.063v-17.197c0-1.65 1.414-3.063 3.063-3.063h44.525c1.649 0 3.062 1.414 3.062 3.063v17.197zM608.982 423.578c0 1.649-1.414 3.062-3.063 3.062h-44.525c-1.65 0-3.063-1.413-3.063-3.062V406.38c0-1.649 1.414-3.062 3.063-3.062h44.525c1.65 0 3.063 1.413 3.063 3.062v17.198z"/>
        <path fill="#F8F8F8" d="M606.155 35.337c0 1.65-1.414 3.063-3.063 3.063h-44.525c-1.65 0-3.063-1.413-3.063-3.063V18.14c0-1.65 1.414-3.063 3.063-3.063h44.525c1.65 0 3.063 1.414 3.063 3.063v17.197zM576.707 62.194c0 1.649-1.414 3.062-3.063 3.062H529.12c-1.65 0-3.063-1.413-3.063-3.062V44.996c0-1.649 1.414-3.062 3.063-3.062h44.525c1.65 0 3.063 1.413 3.063 3.062v17.198z" style="mix-blend-mode:multiply"/>
        <path fill="#FFF0CA" d="M392.01 498.964c0-1.649 1.413-3.062 3.062-3.062h44.526c1.649 0 3.062 1.413 3.062 3.062v17.198c0 1.649-1.413 3.063-3.062 3.063h-44.526c-1.649 0-3.062-1.414-3.062-3.063v-17.198zM337.119 498.964c0-1.649 1.414-3.062 3.063-3.062h44.525c1.649 0 3.062 1.413 3.062 3.062v17.198c0 1.649-1.413 3.063-3.062 3.063h-44.525c-1.65 0-3.063-1.414-3.063-3.063v-17.198zM282.228 498.964c0-1.649 1.414-3.062 3.063-3.062h44.525c1.649 0 3.063 1.413 3.063 3.062v17.198c0 1.649-1.414 3.063-3.063 3.063h-44.525c-1.65 0-3.063-1.414-3.063-3.063v-17.198zM227.337 498.964c0-1.649 1.414-3.062 3.063-3.062h44.525c1.65 0 3.063 1.413 3.063 3.062v17.198c0 1.649-1.414 3.063-3.063 3.063H230.4c-1.65 0-3.063-1.414-3.063-3.063v-17.198zM365.389 472.108c0-1.65 1.413-3.063 3.063-3.063h44.525c1.649 0 3.062 1.414 3.062 3.063v17.198c0 1.649-1.413 3.062-3.062 3.062h-44.525c-1.65 0-3.063-1.413-3.063-3.062v-17.198zM310.498 472.108c0-1.65 1.414-3.063 3.063-3.063h44.525c1.649 0 3.062 1.414 3.062 3.063v17.198c0 1.649-1.413 3.062-3.062 3.062h-44.29c-1.649 0-3.062-1.413-3.062-3.062v-17.198h-.236zM310.498 526.056c0-1.649 1.414-3.062 3.063-3.062h44.525c1.649 0 3.062 1.413 3.062 3.062v17.198c0 1.65-1.413 3.063-3.062 3.063h-44.29c-1.649 0-3.062-1.414-3.062-3.063v-17.198h-.236zM255.607 526.056c0-1.649 1.414-3.062 3.063-3.062h44.525c1.65 0 3.063 1.413 3.063 3.062v17.198c0 1.65-1.414 3.063-3.063 3.063H258.67c-1.65 0-3.063-1.414-3.063-3.063v-17.198zM591.784 298.955c0-1.65 1.414-3.063 3.063-3.063h44.525c1.649 0 3.062 1.414 3.062 3.063v17.197c0 1.65-1.413 3.063-3.062 3.063h-44.525c-1.65 0-3.063-1.414-3.063-3.063v-17.197zM536.893 298.955c0-1.65 1.414-3.063 3.063-3.063h44.525c1.65 0 3.063 1.414 3.063 3.063v17.197c0 1.65-1.414 3.063-3.063 3.063h-44.525c-1.65 0-3.063-1.414-3.063-3.063v-17.197zM566.341 272.098c0-1.649 1.414-3.062 3.063-3.062h44.525c1.649 0 3.062 1.413 3.062 3.062v17.198c0 1.649-1.413 3.062-3.062 3.062h-44.525c-1.65 0-3.063-1.413-3.063-3.062v-17.198zM620.054 272.098c0-1.649 1.413-3.062 3.063-3.062h44.525c1.649 0 3.062 1.413 3.062 3.062v17.198c0 1.649-1.413 3.062-3.062 3.062h-44.525c-1.65 0-3.063-1.413-3.063-3.062v-17.198zM565.163 326.047c0-1.65 1.414-3.063 3.063-3.063h44.525c1.649 0 3.062 1.414 3.062 3.063v17.197c0 1.65-1.413 3.063-3.062 3.063h-44.525c-1.65 0-3.063-1.414-3.063-3.063v-17.197z"/>
        <path fill="#F8F8F8" d="M670.947 211.553c0-1.649 1.414-3.062 3.063-3.062h44.525c1.649 0 3.063 1.413 3.063 3.062v17.198c0 1.649-1.414 3.062-3.063 3.062H674.01c-1.65 0-3.063-1.413-3.063-3.062v-17.198zM615.82 211.553c0-1.649 1.414-3.062 3.063-3.062h44.526c1.649 0 3.062 1.413 3.062 3.062v17.198c0 1.649-1.413 3.062-3.062 3.062h-44.526c-1.649 0-3.062-1.413-3.062-3.062v-17.198zM645.504 184.697c0-1.65 1.414-3.063 3.063-3.063h44.525c1.65 0 3.063 1.414 3.063 3.063v17.197c0 1.65-1.414 3.063-3.063 3.063h-44.525c-1.65 0-3.063-1.413-3.063-3.063v-17.197z" style="mix-blend-mode:multiply"/>
        <path fill="#FFF0CA" d="M1307 407.323c0-1.65 1.414-3.063 3.063-3.063h44.525c1.649 0 3.062 1.414 3.062 3.063v17.197c0 1.65-1.413 3.063-3.062 3.063h-44.525c-1.65 0-3.063-1.414-3.063-3.063v-17.197zM1358 380.466c0-1.649 1.414-3.062 3.063-3.062h44.525c1.649 0 3.062 1.413 3.062 3.062v17.198c0 1.649-1.413 3.062-3.062 3.062h-44.525c-1.65 0-3.063-1.413-3.063-3.062v-17.198z"/>
        <path fill="#F8F8F8" d="M600.972 205.664s0-.236 0 0c-.236-.236-.236 0 0 0z" style="mix-blend-mode:multiply"/>
        <path fill="#FFF0CA" d="M169.23 393.894c0-1.649-1.414-3.062-3.063-3.062h-44.525c-1.65 0-3.063 1.413-3.063 3.062v17.198c0 1.65 1.414 3.063 3.063 3.063h44.525c1.649 0 3.062-1.414 3.062-3.063v-17.198z"/>
        <path fill="#F8F8F8" d="M743.97 14.842c0-1.65-1.413-3.063-3.062-3.063h-44.525c-1.65 0-3.063 1.414-3.063 3.063v17.197c0 1.65 1.414 3.063 3.063 3.063h44.525c1.65 0 3.063-1.414 3.063-3.063V14.842z" style="mix-blend-mode:multiply"/>
        <path fill="#FFF0CA" d="M442.66 393.894c0-1.649-1.413-3.062-3.062-3.062h-44.526c-1.649 0-3.062 1.413-3.062 3.062v17.198c0 1.65 1.413 3.063 3.062 3.063h44.526c1.649 0 3.062-1.414 3.062-3.063v-17.198zM730.778 327.931c0-1.649-1.414-3.062-3.063-3.062H683.19c-1.649 0-3.062 1.413-3.062 3.062v17.198c0 1.649 1.413 3.062 3.062 3.062h44.525c1.65 0 3.063-1.413 3.063-3.062V327.93z"/>
        <path fill="#F8F8F8" d="M622.4 647.121c0 1.65-1.413 3.063-3.063 3.063h-44.525c-1.649 0-3.062-1.413-3.062-3.063v-17.197c0-1.65 1.413-3.063 3.062-3.063h44.525c1.65 0 3.063 1.414 3.063 3.063v17.197zM677.29 647.121c0 1.65-1.413 3.063-3.062 3.063h-44.525c-1.649 0-3.063-1.413-3.063-3.063v-17.197c0-1.65 1.414-3.063 3.063-3.063h44.29c1.649 0 3.062 1.414 3.062 3.063v17.197h.236zM647.607 673.978c0 1.649-1.413 3.062-3.062 3.062H600.02c-1.65 0-3.063-1.413-3.063-3.062V656.78c0-1.649 1.414-3.062 3.063-3.062h44.525c1.649 0 3.062 1.413 3.062 3.062v17.198zM593.894 673.978c0 1.649-1.413 3.062-3.062 3.062h-44.525c-1.65 0-3.063-1.413-3.063-3.062V656.78c0-1.649 1.414-3.062 3.063-3.062h44.525c1.649 0 3.062 1.413 3.062 3.062v17.198z" style="mix-blend-mode:multiply"/>
        <path fill="#FFF0CA" d="M448.785 600.03c0 1.649-1.413 3.062-3.062 3.062h-44.525c-1.65 0-3.063-1.413-3.063-3.063v-17.197c0-1.65 1.413-3.063 3.063-3.063h44.525c1.649 0 3.062 1.414 3.062 3.063v17.197z"/>
        <path fill="#F8F8F8" d="M65.728 683.763c0-1.649 1.413-3.062 3.062-3.062h44.525c1.65 0 3.063 1.413 3.063 3.062v17.198c0 1.649-1.414 3.062-3.063 3.062H68.79c-1.649 0-3.062-1.413-3.062-3.062v-17.198zM10.837 683.763c0-1.649 1.413-3.062 3.062-3.062h44.526c1.649 0 3.062 1.413 3.062 3.062v17.198c0 1.649-1.413 3.062-3.062 3.062H13.899c-1.649 0-3.062-1.413-3.062-3.062v-17.198zM40.285 656.907c0-1.65 1.413-3.063 3.062-3.063h44.525c1.65 0 3.063 1.414 3.063 3.063v17.197c0 1.65-1.414 3.063-3.063 3.063h-44.29c-1.648 0-3.062-1.414-3.062-3.063v-17.197h-.235zM94.233 656.907c0-1.65 1.414-3.063 3.063-3.063h44.525c1.649 0 3.062 1.414 3.062 3.063v17.197c0 1.65-1.413 3.063-3.062 3.063H97.296c-1.65 0-3.063-1.414-3.063-3.063v-17.197zM39.107 710.855c0-1.649 1.413-3.062 3.062-3.062h44.525c1.65 0 3.063 1.413 3.063 3.062v17.198c0 1.649-1.413 3.062-3.063 3.062h-44.29c-1.648 0-3.062-1.413-3.062-3.062v-17.198h-.235zM906.24 631.362c0-1.65 1.414-3.063 3.063-3.063h44.525c1.65 0 3.063 1.414 3.063 3.063v17.198c0 1.649-1.414 3.062-3.063 3.062h-44.525c-1.649 0-3.063-1.413-3.063-3.062v-17.198zM851.35 631.362c0-1.65 1.413-3.063 3.062-3.063h44.525c1.65 0 3.063 1.414 3.063 3.063v17.198c0 1.649-1.413 3.062-3.063 3.062h-44.525c-1.649 0-3.062-1.413-3.062-3.062v-17.198zM880.798 604.506c0-1.65 1.413-3.063 3.062-3.063h44.525c1.65 0 3.063 1.413 3.063 3.063v17.197c0 1.65-1.414 3.063-3.063 3.063H883.86c-1.649 0-3.062-1.414-3.062-3.063v-17.197zM298.955 712.74c0-1.65-1.414-3.063-3.063-3.063h-44.525c-1.65 0-3.063 1.414-3.063 3.063v17.197c0 1.65 1.414 3.063 3.063 3.063h44.525c1.65 0 3.063-1.413 3.063-3.063V712.74z" style="mix-blend-mode:multiply"/>
    </g>
</svg>
